<?xml version="1.0" encoding="utf-8"?>
<!-- Generator: Avocode 2.4.5 - http://avocode.com -->
<svg height="16" width="10" xmlns:xlink="http://www.w3.org/1999/xlink" xmlns="http://www.w3.org/2000/svg" viewBox="0 0 10 16">
    <path fill="#000000" fill-rule="evenodd" d="M 9.07 8 C 9.07 8 7.66 9.41 7.66 9.41 C 7.66 9.41 7.66 9.41 7.66 9.41 C 7.66 9.41 2 15.07 2 15.07 C 2 15.07 0.59 13.66 0.59 13.66 C 0.59 13.66 6.24 8 6.24 8 C 6.24 8 0.59 2.34 0.59 2.34 C 0.59 2.34 2 0.93 2 0.93 C 2 0.93 7.66 6.59 7.66 6.59 C 7.66 6.59 7.66 6.59 7.66 6.59 C 7.66 6.59 9.07 8 9.07 8 Z" />
</svg>