<?xml version="1.0" encoding="utf-8"?>
<!-- Generator: Avocode 2.5.4 - http://avocode.com -->
<svg height="31" width="31" xmlns:xlink="http://www.w3.org/1999/xlink" xmlns="http://www.w3.org/2000/svg" viewBox="0 0 31 31">
    <path fill="#ffffff" fill-rule="evenodd" d="M 30.35 28.23 C 30.35 28.23 28.23 30.35 28.23 30.35 C 28.23 30.35 15.5 17.62 15.5 17.62 C 15.5 17.62 2.77 30.35 2.77 30.35 C 2.77 30.35 0.65 28.23 0.65 28.23 C 0.65 28.23 13.38 15.5 13.38 15.5 C 13.38 15.5 0.65 2.77 0.65 2.77 C 0.65 2.77 2.77 0.65 2.77 0.65 C 2.77 0.65 15.5 13.38 15.5 13.38 C 15.5 13.38 28.23 0.65 28.23 0.65 C 28.23 0.65 30.35 2.77 30.35 2.77 C 30.35 2.77 17.62 15.5 17.62 15.5 C 17.62 15.5 30.35 28.23 30.35 28.23 Z" />
</svg>