<?xml version="1.0" encoding="utf-8"?>
<!-- Generator: Adobe Illustrator 19.0.0, SVG Export Plug-In . SVG Version: 6.00 Build 0)  -->
<svg version="1.1" xmlns="http://www.w3.org/2000/svg" xmlns:xlink="http://www.w3.org/1999/xlink" x="0px" y="0px"
	 viewBox="0 0 135.5 130.6" style="enable-background:new 0 0 135.5 130.6;" xml:space="preserve">
<metadata><?xpacket begin="﻿" id="W5M0MpCehiHzreSzNTczkc9d"?>
<x:xmpmeta xmlns:x="adobe:ns:meta/" x:xmptk="Adobe XMP Core 5.6-c067 79.157747, 2015/03/30-23:40:42        ">
   <rdf:RDF xmlns:rdf="http://www.w3.org/1999/02/22-rdf-syntax-ns#">
      <rdf:Description rdf:about=""/>
   </rdf:RDF>
</x:xmpmeta>
                                                                                                    
                                                                                                    
                                                                                                    
                                                                                                    
                                                                                                    
                                                                                                    
                                                                                                    
                                                                                                    
                                                                                                    
                                                                                                    
                                                                                                    
                                                                                                    
                                                                                                    
                                                                                                    
                                                                                                    
                                                                                                    
                                                                                                    
                                                                                                    
                                                                                                    
                                                                                                    
                           
<?xpacket end="w"?></metadata>
<style type="text/css">
	.st0{fill:#FFFFFF;}
</style>
<g id="Layer_1">
</g>
<g id="SEREBRO">
	<g>
		<g>
			<g>
				<g>
					<path class="st0" d="M33.7,37.7h12.9c12.5,0,22,9.9,22,24.1c0,14.2-9.5,23.4-22,23.4H33.7V37.7z M41.1,44.4v34.3h4.7
						c8.9,0,15-6.6,15-16.9c0-10.3-6.1-17.5-15-17.5H41.1z"/>
				</g>
				<g>
					<path class="st0" d="M94.3,85.3V65c0-3.5-1.3-6.8-6.5-6.8c-5.1,0-6.8,4-6.8,6.8v20.3h-6.8V37.5h6.6l0,17.3c0,0,2.5-2.5,8.9-2.5
						c8.2,0,11.3,5.3,11.3,11.3v21.7H94.3z"/>
				</g>
			</g>
			<g>
				<g>
					<path class="st0" d="M80.4,107h-6.2V95.7H76v9.8h4.4V107z"/>
				</g>
				<g>
					<path class="st0" d="M89,104.8h-3.4L85,107h-1.9l3.3-11.4h1.8l3.3,11.4h-1.9L89,104.8z M86,103.4h2.7l-1.3-5.3L86,103.4z"/>
				</g>
				<g>
					<path class="st0" d="M95.1,95.7h3c2.6,0,4.1,0.9,4.1,2.9c0,1.3-0.6,2.1-1.6,2.4c1.4,0.3,2.4,1.3,2.4,2.9c0,2.2-1.6,3.1-4.4,3.1
						h-3.6V95.7z M96.9,97.2v3.4h1.3c1.3,0,2.3-0.5,2.3-1.7c0-1.3-0.9-1.7-2.2-1.7H96.9z M96.9,101.9v3.6h1.8c1.7,0,2.7-0.5,2.7-1.7
						c0-1.4-1-1.9-2.7-1.9H96.9z"/>
				</g>
			</g>
			<g>
				<path class="st0" d="M9.2,9.8v113.3h114.3V9.8H9.2z M13.1,119.2V13.7h106.5v105.5H13.1z"/>
			</g>
		</g>
	</g>
</g>
</svg>
